<?xml version="1.0" encoding="utf-8" standalone="no"?>
<!DOCTYPE svg PUBLIC "-//W3C//DTD SVG 1.1//EN"
  "http://www.w3.org/Graphics/SVG/1.1/DTD/svg11.dtd">
<!-- Created with matplotlib (http://matplotlib.org/) -->
<svg height="416pt" version="1.1" viewBox="0 0 416 416" width="416pt" xmlns="http://www.w3.org/2000/svg" xmlns:xlink="http://www.w3.org/1999/xlink">
 <defs>
  <style type="text/css">
*{stroke-linecap:butt;stroke-linejoin:round;stroke-miterlimit:100000;}
  </style>
 </defs>
 <g id="figure_1">
  <g id="patch_1">
   <path d="M 0 416.692951 
L 416.692951 416.692951 
L 416.692951 0 
L 0 0 
z
" style="fill:#ffffff;"/>
  </g>
  <g id="axes_1">
   <g id="line2d_1">
    <path clip-path="url(#pfa8f97e54b)" d="M 72.270184 203.137814 
L 112.637313 203.137814 
L 153.004443 203.137814 
L 193.371573 203.137814 
L 233.738702 203.137814 
L 274.105832 203.137814 
L 314.472962 203.137814 
L 354.840091 203.137814 
L 213.555138 344.422768 
L 213.555138 304.055638 
L 213.555138 263.688508 
L 213.555138 223.321379 
L 213.555138 182.954249 
L 213.555138 142.587119 
L 213.555138 102.21999 
L 213.555138 61.85286 
L 132.820878 324.239203 
L 132.820878 243.504943 
L 132.820878 162.770684 
L 132.820878 82.036425 
L 294.289397 324.239203 
L 294.289397 243.504943 
L 294.289397 162.770684 
L 294.289397 82.036425 
L 92.453749 283.872073 
L 92.453749 122.403554 
L 173.188008 283.872073 
L 173.188008 122.403554 
L 253.922267 283.872073 
L 253.922267 122.403554 
L 334.656527 283.872073 
L 334.656527 122.403554 
" style="fill:none;"/>
    <defs>
     <path d="M -6.193151 -4.074274 
L -8.161221 -3.413504 
L -8.161221 -3.168563 
L -7.405038 -3.168563 
C -6.839681 -3.168563 -6.976392 -2.426621 -6.976392 -1.421225 
C -6.976392 -0.152376 -7.003449 1.115049 -7.049019 2.37393 
L -6.94079 2.419501 
L -6.174638 2.17456 
C -6.201696 1.486733 -6.201696 -0.3076 -6.201696 -1.537999 
C -6.201696 -2.344025 -6.183183 -3.160019 -6.137613 -3.966044 
z
M -0.269006 -4.084242 
L -0.4698 -4.129813 
L -0.569486 -4.1113 
L -4.086947 3.930443 
L -4.059889 4.057185 
L -3.767954 4.129813 
L -0.223436 -3.984557 
z
M 4.424452 -3.867783 
C 4.287741 -3.921898 4.059889 -3.976013 3.923178 -3.976013 
C 3.112881 -3.976013 2.328216 -3.441985 1.764283 -2.852419 
C 0.952561 -2.046393 0.542428 -0.924224 0.542428 0.207915 
C 0.542428 1.240368 0.998132 2.48216 2.282646 2.48216 
C 3.376334 2.48216 4.424452 1.50667 4.424452 0.440039 
C 4.424452 -0.334657 3.887577 -1.072327 3.057342 -1.072327 
C 2.429325 -1.072327 1.855424 -0.808874 1.371239 -0.418678 
L 1.30858 -0.427222 
C 1.317124 -1.291635 1.490861 -2.200193 2.210018 -2.856691 
C 2.584549 -3.198469 3.075855 -3.441985 3.632667 -3.441985 
C 3.814949 -3.441985 3.978717 -3.414928 4.160999 -3.343724 
L 4.242171 -3.379326 
z
M 1.335637 -0.054115 
C 1.536431 -0.246365 2.09182 -0.501274 2.464927 -0.501274 
C 3.185508 -0.501274 3.705295 0.119622 3.705295 0.796057 
C 3.705295 1.489581 3.303707 2.073451 2.529011 2.073451 
C 1.563489 2.073451 1.335637 0.77612 1.335637 -0.054115 
M 7.978939 -3.985981 
L 7.28684 -3.669837 
L 4.680785 0.260605 
L 4.680785 0.659346 
L 7.268327 0.659346 
L 7.33241 0.741942 
C 7.33241 1.311572 7.33241 2.063482 7.28684 2.381051 
L 7.33241 2.435165 
L 8.061536 2.13611 
C 8.034478 1.93674 8.034478 1.221855 8.034478 0.731974 
L 8.107106 0.659346 
L 8.854745 0.659346 
L 9 0.324689 
L 8.95443 0.260605 
L 8.098562 0.260605 
L 8.034478 0.179433 
C 8.034478 -1.224703 8.034478 -3.686926 8.043023 -3.931867 
z
M 7.33241 0.189402 
L 7.278295 0.260605 
L 5.31877 0.260605 
L 5.2732 0.197946 
C 5.281744 -0.001424 6.047896 -1.25176 6.393946 -1.785788 
C 6.657399 -2.193073 6.930821 -2.610326 7.241269 -2.963497 
C 7.249814 -2.972041 7.268327 -2.980586 7.28684 -2.980586 
C 7.313897 -2.980586 7.33241 -2.953528 7.33241 -2.907958 
z
" id="m3c55e06dc8"/>
    </defs>
    <g clip-path="url(#pfa8f97e54b)">
     <use style="fill:#0072b2;" x="72.270183764" xlink:href="#m3c55e06dc8" y="203.137813823"/>
     <use style="fill:#0072b2;" x="112.637313434" xlink:href="#m3c55e06dc8" y="203.137813823"/>
     <use style="fill:#0072b2;" x="153.004443104" xlink:href="#m3c55e06dc8" y="203.137813823"/>
     <use style="fill:#0072b2;" x="193.371572774" xlink:href="#m3c55e06dc8" y="203.137813823"/>
     <use style="fill:#0072b2;" x="233.738702444" xlink:href="#m3c55e06dc8" y="203.137813823"/>
     <use style="fill:#0072b2;" x="274.105832114" xlink:href="#m3c55e06dc8" y="203.137813823"/>
     <use style="fill:#0072b2;" x="314.472961784" xlink:href="#m3c55e06dc8" y="203.137813823"/>
     <use style="fill:#0072b2;" x="354.840091454" xlink:href="#m3c55e06dc8" y="203.137813823"/>
     <use style="fill:#0072b2;" x="213.555137609" xlink:href="#m3c55e06dc8" y="344.422767668"/>
     <use style="fill:#0072b2;" x="213.555137609" xlink:href="#m3c55e06dc8" y="304.055637998"/>
     <use style="fill:#0072b2;" x="213.555137609" xlink:href="#m3c55e06dc8" y="263.688508328"/>
     <use style="fill:#0072b2;" x="213.555137609" xlink:href="#m3c55e06dc8" y="223.321378658"/>
     <use style="fill:#0072b2;" x="213.555137609" xlink:href="#m3c55e06dc8" y="182.954248988"/>
     <use style="fill:#0072b2;" x="213.555137609" xlink:href="#m3c55e06dc8" y="142.587119318"/>
     <use style="fill:#0072b2;" x="213.555137609" xlink:href="#m3c55e06dc8" y="102.219989648"/>
     <use style="fill:#0072b2;" x="213.555137609" xlink:href="#m3c55e06dc8" y="61.8528599782"/>
     <use style="fill:#0072b2;" x="132.820878269" xlink:href="#m3c55e06dc8" y="324.239202833"/>
     <use style="fill:#0072b2;" x="132.820878269" xlink:href="#m3c55e06dc8" y="243.504943493"/>
     <use style="fill:#0072b2;" x="132.820878269" xlink:href="#m3c55e06dc8" y="162.770684153"/>
     <use style="fill:#0072b2;" x="132.820878269" xlink:href="#m3c55e06dc8" y="82.0364248132"/>
     <use style="fill:#0072b2;" x="294.289396949" xlink:href="#m3c55e06dc8" y="324.239202833"/>
     <use style="fill:#0072b2;" x="294.289396949" xlink:href="#m3c55e06dc8" y="243.504943493"/>
     <use style="fill:#0072b2;" x="294.289396949" xlink:href="#m3c55e06dc8" y="162.770684153"/>
     <use style="fill:#0072b2;" x="294.289396949" xlink:href="#m3c55e06dc8" y="82.0364248132"/>
     <use style="fill:#0072b2;" x="92.453748599" xlink:href="#m3c55e06dc8" y="283.872073163"/>
     <use style="fill:#0072b2;" x="92.453748599" xlink:href="#m3c55e06dc8" y="122.403554483"/>
     <use style="fill:#0072b2;" x="173.188007939" xlink:href="#m3c55e06dc8" y="283.872073163"/>
     <use style="fill:#0072b2;" x="173.188007939" xlink:href="#m3c55e06dc8" y="122.403554483"/>
     <use style="fill:#0072b2;" x="253.922267279" xlink:href="#m3c55e06dc8" y="283.872073163"/>
     <use style="fill:#0072b2;" x="253.922267279" xlink:href="#m3c55e06dc8" y="122.403554483"/>
     <use style="fill:#0072b2;" x="334.656526619" xlink:href="#m3c55e06dc8" y="283.872073163"/>
     <use style="fill:#0072b2;" x="334.656526619" xlink:href="#m3c55e06dc8" y="122.403554483"/>
    </g>
   </g>
   <g id="line2d_2">
    <path clip-path="url(#pfa8f97e54b)" d="M 92.453749 203.137814 
L 173.188008 203.137814 
L 253.922267 203.137814 
L 334.656527 203.137814 
L 213.555138 324.239203 
L 213.555138 243.504943 
L 213.555138 162.770684 
L 213.555138 82.036425 
L 132.820878 283.872073 
L 132.820878 122.403554 
L 294.289397 283.872073 
L 294.289397 122.403554 
" style="fill:none;"/>
    <defs>
     <path d="M -6.190262 -4.078469 
L -8.160357 -3.417018 
L -8.160357 -3.171825 
L -7.403396 -3.171825 
C -6.837457 -3.171825 -6.974308 -2.429119 -6.974308 -1.422688 
C -6.974308 -0.152533 -7.001394 1.116197 -7.047011 2.376374 
L -6.93867 2.421992 
L -6.17173 2.176799 
C -6.198815 1.488263 -6.198815 -0.307917 -6.198815 -1.539583 
C -6.198815 -2.346438 -6.180283 -3.163272 -6.134666 -3.970128 
z
M -0.260017 -4.088447 
L -0.461018 -4.134065 
L -0.560806 -4.115533 
L -4.081889 3.934489 
L -4.054803 4.061362 
L -3.762568 4.134065 
L -0.2144 -3.98866 
z
M 2.951436 -4.078469 
L 0.98134 -3.417018 
L 0.98134 -3.171825 
L 1.738302 -3.171825 
C 2.304241 -3.171825 2.167389 -2.429119 2.167389 -1.422688 
C 2.167389 -0.152533 2.140304 1.116197 2.094686 2.376374 
L 2.203027 2.421992 
L 2.969968 2.176799 
C 2.942883 1.488263 2.942883 -0.307917 2.942883 -1.539583 
C 2.942883 -2.346438 2.961415 -3.163272 3.007032 -3.970128 
z
M 9 -3.871765 
C 8.863148 -3.925936 8.635062 -3.980106 8.49821 -3.980106 
C 7.687078 -3.980106 6.901606 -3.445529 6.337092 -2.855356 
C 5.524535 -2.0485 5.113979 -0.925175 5.113979 0.208129 
C 5.113979 1.241645 5.570152 2.484715 6.855989 2.484715 
C 7.950803 2.484715 9 1.508221 9 0.440492 
C 9 -0.335002 8.462572 -1.073431 7.631482 -1.073431 
C 7.002819 -1.073431 6.428327 -0.809706 5.943643 -0.419109 
L 5.880919 -0.427662 
C 5.889473 -1.292964 6.063389 -2.202459 6.783286 -2.859632 
C 7.158203 -3.201762 7.650014 -3.445529 8.2074 -3.445529 
C 8.389869 -3.445529 8.553806 -3.418444 8.736275 -3.347167 
L 8.817531 -3.382805 
z
M 5.908005 -0.054171 
C 6.109006 -0.246618 6.664966 -0.50179 7.038458 -0.50179 
C 7.759781 -0.50179 8.280103 0.119745 8.280103 0.796877 
C 8.280103 1.491114 7.8781 2.075586 7.102607 2.075586 
C 6.136091 2.075586 5.908005 0.776919 5.908005 -0.054171 
" id="m0953235033"/>
    </defs>
    <g clip-path="url(#pfa8f97e54b)">
     <use style="fill:#009e73;" x="92.453748599" xlink:href="#m0953235033" y="203.137813823"/>
     <use style="fill:#009e73;" x="173.188007939" xlink:href="#m0953235033" y="203.137813823"/>
     <use style="fill:#009e73;" x="253.922267279" xlink:href="#m0953235033" y="203.137813823"/>
     <use style="fill:#009e73;" x="334.656526619" xlink:href="#m0953235033" y="203.137813823"/>
     <use style="fill:#009e73;" x="213.555137609" xlink:href="#m0953235033" y="324.239202833"/>
     <use style="fill:#009e73;" x="213.555137609" xlink:href="#m0953235033" y="243.504943493"/>
     <use style="fill:#009e73;" x="213.555137609" xlink:href="#m0953235033" y="162.770684153"/>
     <use style="fill:#009e73;" x="213.555137609" xlink:href="#m0953235033" y="82.0364248132"/>
     <use style="fill:#009e73;" x="132.820878269" xlink:href="#m0953235033" y="283.872073163"/>
     <use style="fill:#009e73;" x="132.820878269" xlink:href="#m0953235033" y="122.403554483"/>
     <use style="fill:#009e73;" x="294.289396949" xlink:href="#m0953235033" y="283.872073163"/>
     <use style="fill:#009e73;" x="294.289396949" xlink:href="#m0953235033" y="122.403554483"/>
    </g>
   </g>
   <g id="line2d_3">
    <path clip-path="url(#pfa8f97e54b)" d="M 132.820878 203.137814 
L 294.289397 203.137814 
L 213.555138 283.872073 
L 213.555138 122.403554 
" style="fill:none;"/>
    <defs>
     <path d="M -5.241657 -5.455413 
L -7.876883 -4.570649 
L -7.876883 -4.242675 
L -6.864361 -4.242675 
C -6.107353 -4.242675 -6.290408 -3.249222 -6.290408 -1.903007 
C -6.290408 -0.20403 -6.326638 1.49304 -6.387656 3.17867 
L -6.242738 3.239688 
L -5.216868 2.911715 
C -5.253098 1.990721 -5.253098 -0.411873 -5.253098 -2.059366 
C -5.253098 -3.138626 -5.228309 -4.231235 -5.167291 -5.310495 
z
M 2.690716 -5.468761 
L 2.421854 -5.529779 
L 2.288377 -5.504991 
L -2.42147 5.262824 
L -2.38524 5.432531 
L -1.994342 5.529779 
L 2.751734 -5.335284 
z
M 7.63281 -5.33719 
L 6.706095 -4.913876 
L 3.216614 0.348948 
L 3.216614 0.882858 
L 6.681306 0.882858 
L 6.767113 0.993453 
C 6.767113 1.756182 6.767113 2.762983 6.706095 3.188204 
L 6.767113 3.260663 
L 7.743405 2.860231 
C 7.707176 2.593276 7.707176 1.636052 7.707176 0.980106 
L 7.804424 0.882858 
L 8.805504 0.882858 
L 9 0.434755 
L 8.938982 0.348948 
L 7.792983 0.348948 
L 7.707176 0.240259 
C 7.707176 -1.639866 7.707176 -4.936758 7.718617 -5.264731 
z
M 6.767113 0.253607 
L 6.694654 0.348948 
L 4.070869 0.348948 
L 4.009851 0.265048 
C 4.021292 -0.001907 5.047161 -1.676095 5.510519 -2.391153 
C 5.86328 -2.936503 6.22939 -3.495202 6.645077 -3.968093 
C 6.656518 -3.979534 6.681306 -3.990975 6.706095 -3.990975 
C 6.742325 -3.990975 6.767113 -3.954746 6.767113 -3.893727 
z
" id="mfaffaa4856"/>
    </defs>
    <g clip-path="url(#pfa8f97e54b)">
     <use style="fill:#d55e00;" x="132.820878269" xlink:href="#mfaffaa4856" y="203.137813823"/>
     <use style="fill:#d55e00;" x="294.289396949" xlink:href="#mfaffaa4856" y="203.137813823"/>
     <use style="fill:#d55e00;" x="213.555137609" xlink:href="#mfaffaa4856" y="283.872073163"/>
     <use style="fill:#d55e00;" x="213.555137609" xlink:href="#mfaffaa4856" y="122.403554483"/>
    </g>
   </g>
   <g id="line2d_4">
    <path clip-path="url(#pfa8f97e54b)" d="M 213.555138 203.137814 
" style="fill:none;"/>
    <defs>
     <path d="M 3.813158 -9 
L -1.642105 -7.168421 
L -1.642105 -6.489474 
L 0.453947 -6.489474 
C 2.021053 -6.489474 1.642105 -4.432895 1.642105 -1.646053 
C 1.642105 1.871053 1.567105 5.384211 1.440789 8.873684 
L 1.740789 9 
L 3.864474 8.321053 
C 3.789474 6.414474 3.789474 1.440789 3.789474 -1.969737 
C 3.789474 -4.203947 3.840789 -6.465789 3.967105 -8.7 
z
" id="m929ae192d6"/>
    </defs>
    <g clip-path="url(#pfa8f97e54b)">
     <use style="fill:#cc79a7;" x="213.555137609" xlink:href="#m929ae192d6" y="203.137813823"/>
    </g>
   </g>
  </g>
 </g>
 <defs>
  <clipPath id="pfa8f97e54b">
   <rect height="322.93703736" width="322.93703736" x="52.086618929" y="41.6692951432"/>
  </clipPath>
 </defs>
</svg>
